<svg xmlns="http://www.w3.org/2000/svg" viewBox="0 0 80 48"><defs><style>.a{fill:#6e6e6e;}</style></defs><path class="a" d="M61,22a8,8,0,0,0-13.31-6A3,3,0,0,1,48,16a3,3,0,0,1,2.17,5.06A7.54,7.54,0,0,1,51,21a6,6,0,0,1,6,6,5.9,5.9,0,0,1-.4,2.14A8,8,0,0,0,61,22Z"/><path class="a" d="M59,31a5.07,5.07,0,0,0-2.29-1.71A8.55,8.55,0,0,0,48.5,23a8.08,8.08,0,0,0-1.31.11A8.49,8.49,0,0,0,32.71,14.4,6.23,6.23,0,0,0,30.5,14,6.5,6.5,0,0,0,24,20.5a6.25,6.25,0,0,0,.2,1.57,4.05,4.05,0,0,0-.7-.07A4.49,4.49,0,0,0,21,30.22v.13a3.48,3.48,0,0,0,0,6.3V37H59v0A4.91,4.91,0,0,0,59,31Z"/></svg>