<svg xmlns="http://www.w3.org/2000/svg" viewBox="0 0 80 48"><defs><style>.a{fill:#6e6e6e;}.b{fill:none;stroke:#6e6e6e;stroke-linecap:round;stroke-miterlimit:10;stroke-width:2.5px;}</style></defs><path class="a" d="M31.59,12.05,32,10.33a1,1,0,0,0-2-.42l-.35,1.72A17.32,17.32,0,0,0,11.1,21.8a6.36,6.36,0,0,1,10.53,3.78,6.4,6.4,0,0,1,5.66-3L25,33.76a4.58,4.58,0,1,0,9,1.87l.49-2.35a1,1,0,0,0-.8-1.22,1.08,1.08,0,0,0-.44,0,1,1,0,0,0-.77.79l-.49,2.35a2.52,2.52,0,1,1-4.93-1l.78-3.73L29.31,23a6.39,6.39,0,0,1,4,5,6.37,6.37,0,0,1,11.17.73A17.32,17.32,0,0,0,31.59,12.05Z"/><line class="b" x1="43.9" y1="8.73" x2="40.9" y2="14.73"/><line class="b" x1="49.9" y1="8.73" x2="45.9" y2="18.73"/><line class="b" x1="55.9" y1="8.73" x2="50.9" y2="21.73"/><line class="b" x1="61.9" y1="8.73" x2="55.9" y2="25.73"/><line class="b" x1="68.9" y1="8.73" x2="61.9" y2="27.73"/></svg>