<svg xmlns="http://www.w3.org/2000/svg" viewBox="0 0 80 48"><defs><style>.a{fill:#6e6e6e;}</style></defs><path class="a" d="M48.21,20.47a2.09,2.09,0,0,1-1.05-1.81V15A2.09,2.09,0,0,0,44,13.22L40.88,15a2.11,2.11,0,0,1-2.09,0L36,13.41a2.09,2.09,0,0,0-3.14,1.81v3.25a2.08,2.08,0,0,1-1.05,1.81l-3.14,1.81a2.1,2.1,0,0,0,0,3.63l3.14,1.81a2.09,2.09,0,0,1,1.05,1.81V33A2.09,2.09,0,0,0,36,34.78L39.12,33a2.11,2.11,0,0,1,2.09,0L44,34.59a2.09,2.09,0,0,0,3.14-1.81V29.53a2.08,2.08,0,0,1,1.05-1.81l3.14-1.81a2.1,2.1,0,0,0,0-3.63Zm-2.42,1L48,22.79a1.48,1.48,0,0,1,0,2.56l-2.21,1.27a1.48,1.48,0,0,0-.74,1.28v2.29a1.48,1.48,0,0,1-2.22,1.28l-2-1.15a1.48,1.48,0,0,0-1.47,0L37.17,31.6A1.48,1.48,0,0,1,35,30.32V27.77a1.47,1.47,0,0,0-.74-1.28L32,25.21a1.48,1.48,0,0,1,0-2.56l2.21-1.27A1.48,1.48,0,0,0,35,20.1V17.81a1.48,1.48,0,0,1,2.22-1.28l2,1.15a1.48,1.48,0,0,0,1.47,0l2.21-1.28a1.48,1.48,0,0,1,2.22,1.28v2.55A1.47,1.47,0,0,0,45.79,21.51Z"/><path class="a" d="M42.29,9.79l.45.8a.52.52,0,0,1-.46.79h-.91a.52.52,0,0,0-.46.27l-.41.71a.53.53,0,0,1-.92,0l-.41-.71a.52.52,0,0,0-.46-.27H37.8a.52.52,0,0,1-.46-.79l.45-.8a.51.51,0,0,0,0-.53l-.45-.79a.52.52,0,0,1,.46-.79h.91a.52.52,0,0,0,.46-.27l.41-.71a.53.53,0,0,1,.92,0l.41.71a.52.52,0,0,0,.46.27h.91a.52.52,0,0,1,.46.79l-.45.79A.51.51,0,0,0,42.29,9.79Z"/><path class="a" d="M54.29,16.79l.45.8a.52.52,0,0,1-.46.79h-.91a.52.52,0,0,0-.46.27l-.41.71a.53.53,0,0,1-.92,0l-.41-.71a.52.52,0,0,0-.46-.27H49.8a.52.52,0,0,1-.46-.79l.45-.8a.51.51,0,0,0,0-.53l-.45-.79a.52.52,0,0,1,.46-.79h.91a.52.52,0,0,0,.46-.27l.41-.71a.53.53,0,0,1,.92,0l.41.71a.52.52,0,0,0,.46.27h.91a.52.52,0,0,1,.46.79l-.45.79A.51.51,0,0,0,54.29,16.79Z"/><path class="a" d="M54.29,30.79l.45.8a.52.52,0,0,1-.46.79h-.91a.52.52,0,0,0-.46.27l-.41.71a.53.53,0,0,1-.92,0l-.41-.71a.52.52,0,0,0-.46-.27H49.8a.52.52,0,0,1-.46-.79l.45-.8a.51.51,0,0,0,0-.53l-.45-.79a.52.52,0,0,1,.46-.79h.91a.52.52,0,0,0,.46-.27l.41-.71a.53.53,0,0,1,.92,0l.41.71a.52.52,0,0,0,.46.27h.91a.52.52,0,0,1,.46.79l-.45.79A.51.51,0,0,0,54.29,30.79Z"/><path class="a" d="M30.29,30.79l.45.8a.52.52,0,0,1-.46.79h-.91a.52.52,0,0,0-.46.27l-.41.71a.53.53,0,0,1-.92,0l-.41-.71a.52.52,0,0,0-.46-.27H25.8a.52.52,0,0,1-.46-.79l.45-.8a.51.51,0,0,0,0-.53l-.45-.79a.52.52,0,0,1,.46-.79h.91a.52.52,0,0,0,.46-.27l.41-.71a.53.53,0,0,1,.92,0l.41.71a.52.52,0,0,0,.46.27h.91a.52.52,0,0,1,.46.79l-.45.79A.51.51,0,0,0,30.29,30.79Z"/><path class="a" d="M30.29,17.79l.45.8a.52.52,0,0,1-.46.79h-.91a.52.52,0,0,0-.46.27l-.41.71a.53.53,0,0,1-.92,0l-.41-.71a.52.52,0,0,0-.46-.27H25.8a.52.52,0,0,1-.46-.79l.45-.8a.51.51,0,0,0,0-.53l-.45-.79a.52.52,0,0,1,.46-.79h.91a.52.52,0,0,0,.46-.27l.41-.71a.53.53,0,0,1,.92,0l.41.71a.52.52,0,0,0,.46.27h.91a.52.52,0,0,1,.46.79l-.45.79A.51.51,0,0,0,30.29,17.79Z"/><path class="a" d="M42.29,38.79l.45.8a.52.52,0,0,1-.46.79h-.91a.52.52,0,0,0-.46.27l-.41.71a.53.53,0,0,1-.92,0l-.41-.71a.52.52,0,0,0-.46-.27H37.8a.52.52,0,0,1-.46-.79l.45-.8a.51.51,0,0,0,0-.53l-.45-.79a.52.52,0,0,1,.46-.79h.91a.52.52,0,0,0,.46-.27l.41-.71a.53.53,0,0,1,.92,0l.41.71a.52.52,0,0,0,.46.27h.91a.52.52,0,0,1,.46.79l-.45.79A.51.51,0,0,0,42.29,38.79Z"/><path class="a" d="M42.55,24.3a.59.59,0,0,1,0-.6l.52-.9a.6.6,0,0,0-.52-.9h-1a.59.59,0,0,1-.52-.31l-.47-.8a.6.6,0,0,0-1,0l-.47.8a.59.59,0,0,1-.52.31h-1a.6.6,0,0,0-.52.9l.52.9a.59.59,0,0,1,0,.6l-.52.9a.6.6,0,0,0,.52.9h1a.59.59,0,0,1,.52.31l.47.8a.6.6,0,0,0,1,0l.47-.8a.59.59,0,0,1,.52-.31h1a.6.6,0,0,0,.52-.9Z"/><rect class="a" x="39" y="6" width="2" height="36" rx="1"/><rect class="a" x="39" y="6" width="2" height="36" rx="1" transform="translate(39.22 70.64) rotate(-120)"/><rect class="a" x="39" y="6" width="2" height="36" rx="1" transform="matrix(0.5, -0.87, 0.87, 0.5, -0.78, 46.64)"/></svg>