<svg xmlns="http://www.w3.org/2000/svg" viewBox="0 0 84.85 84.85"><defs><style>.a{fill:#429bb3;}.b{fill:#fff;}</style></defs><rect class="a" x="12.43" y="12.43" width="60" height="60" transform="translate(-17.57 42.43) rotate(-45)"/><path class="b" d="M38.24,24.4l-.76,10.65a.49.49,0,0,1-1,0L35.43,24.83a1.49,1.49,0,0,0-3,0L31.4,35.07a.49.49,0,0,1-1,0L29.67,24.4a.89.89,0,0,0-1.77,0l-1,12.26a5.5,5.5,0,0,0,2.05,4.75l.84.68a5.59,5.59,0,0,1,2.09,4.36V61.54h0a2.51,2.51,0,0,0,4.18,0h0V46.46a5.6,5.6,0,0,1,2.1-4.36l.84-.68A5.5,5.5,0,0,0,41,36.67L40,24.41A.88.88,0,0,0,38.24,24.4Z"/><path class="b" d="M58,63.63h0a4.44,4.44,0,0,1-6.27,0h0a3.15,3.15,0,0,1-.91-2.52l.72-8a2.5,2.5,0,0,0-1.8-2.63L47.78,50a3.39,3.39,0,0,1-2.29-4.31l7.82-24.07a2.4,2.4,0,0,1,4.68.74Z"/></svg>