<svg xmlns="http://www.w3.org/2000/svg" viewBox="0 0 84.85 84.85"><defs><style>.a{fill:#cd475a;}.b{fill:#fff;}</style></defs><rect class="a" x="12.43" y="12.43" width="60" height="60" transform="translate(-17.57 42.06) rotate(-44.65)"/><path class="b" d="M54,26.67A6.68,6.68,0,0,0,42.55,22h0a6.67,6.67,0,1,0-9.49,9.37h0l9.38,9.49,9.49-9.37h0A6.65,6.65,0,0,0,54,26.67Z"/><path class="b" d="M30.86,58.18a6.66,6.66,0,0,0,11.44,4.7h0a6.67,6.67,0,1,0,9.49-9.37h0L42.42,44l-9.5,9.37h0A6.61,6.61,0,0,0,30.86,58.18Z"/><path class="b" d="M58.18,54a6.67,6.67,0,0,0,4.7-11.45h0a6.67,6.67,0,1,0-9.37-9.49h0L44,42.44l9.37,9.49h0A6.65,6.65,0,0,0,58.18,54Z"/><path class="b" d="M26.67,30.86A6.67,6.67,0,0,0,22,42.3h0a6.67,6.67,0,1,0,9.37,9.49h0l9.49-9.37-9.37-9.5h0A6.61,6.61,0,0,0,26.67,30.86Z"/></svg>