<?xml version="1.0" encoding="UTF-8"?>
<svg xmlns="http://www.w3.org/2000/svg" viewBox="0 0 100 100">
  <defs>
    <style>
      .b {
        fill: #8479aa;
      }

      .c {
        fill: #312a5e;
      }
    </style>
  </defs>
  <g>
    <circle class="b" cx="50" cy="50" r="47.62"/>
    <path d="M50,100C22.43,100,0,77.57,0,50S22.43,0,50,0s50,22.43,50,50-22.43,50-50,50ZM50,4.76C25.06,4.76,4.76,25.06,4.76,50s20.29,45.24,45.24,45.24,45.24-20.29,45.24-45.24S74.94,4.76,50,4.76Z"/>
  </g>
  <g>
    <path class="c" d="M41.35,54.89c-.42,0-.84-.07-1.26-.2l-21.43-7.14c-2.08-.69-3.2-2.94-2.51-5.02.69-2.08,2.94-3.2,5.02-2.51l21.43,7.14c2.08.69,3.2,2.94,2.51,5.02-.55,1.66-2.1,2.71-3.76,2.71Z"/>
    <path class="c" d="M33.33,82.67c-1.11,0-2.21-.46-3-1.36-1.44-1.65-1.26-4.16.39-5.6,13.29-11.56,26.68-11.51,38.71.14,1.57,1.53,1.61,4.04.09,5.61-1.53,1.58-4.04,1.61-5.61.09-9.1-8.82-17.72-8.77-27.97.14-.75.65-1.68.97-2.6.97Z"/>
    <path class="c" d="M58.65,54.64c-1.66,0-3.21-1.05-3.76-2.71-.69-2.08.43-4.33,2.51-5.02l21.43-7.14c2.08-.69,4.33.43,5.02,2.51.69,2.08-.43,4.33-2.51,5.02l-21.43,7.14c-.42.14-.84.2-1.26.2Z"/>
  </g>
</svg>