<?xml version="1.0" encoding="UTF-8"?>
<svg xmlns="http://www.w3.org/2000/svg" viewBox="0 0 100 100">
  <defs>
    <style>
      .b {
        fill: #fc6e85;
      }

      .c {
        fill: #b92825;
      }
    </style>
  </defs>
  <g>
    <circle class="b" cx="50" cy="50" r="47.62"/>
    <path d="M50,100C22.43,100,0,77.57,0,50S22.43,0,50,0s50,22.43,50,50-22.43,50-50,50ZM50,4.76C25.06,4.76,4.76,25.06,4.76,50s20.29,45.24,45.24,45.24,45.24-20.29,45.24-45.24S74.94,4.76,50,4.76Z"/>
  </g>
  <g>
    <path class="c" d="M15.84,59.75c-1.58,0-3.07-.95-3.69-2.51-.81-2.04.19-4.35,2.22-5.15l12.36-4.91-12.54-5.67c-2-.9-2.88-3.25-1.98-5.25.9-2,3.25-2.89,5.25-1.98l21.06,9.53c1.45.66,2.37,2.12,2.33,3.71-.04,1.59-1.02,3.01-2.5,3.6l-21.06,8.36c-.48.19-.98.28-1.46.28Z"/>
    <path class="c" d="M84.16,59.75c-.49,0-.98-.09-1.46-.28l-21.06-8.36c-1.48-.59-2.47-2-2.5-3.6-.04-1.59.88-3.05,2.33-3.71l21.06-9.53c1.99-.9,4.35-.02,5.25,1.98.9,2,.02,4.35-1.98,5.25l-12.54,5.67,12.36,4.91c2.04.81,3.03,3.12,2.22,5.15-.62,1.56-2.11,2.51-3.69,2.51Z"/>
    <path class="c" d="M32.46,66.58c6.07-8.9,32.6-5.54,34.93-1.59,6.81,27.4-40.87,23.62-34.93,1.59Z"/>
  </g>
</svg>