<?xml version="1.0" encoding="UTF-8"?>
<svg xmlns="http://www.w3.org/2000/svg" viewBox="0 0 100 100">
  <defs>
    <style>
      .b {
        fill: #f8bc64;
      }

      .c {
        fill: #bf680a;
      }
    </style>
  </defs>
  <g>
    <circle class="b" cx="50" cy="50" r="47.62"/>
    <path d="M50,100C22.43,100,0,77.57,0,50S22.43,0,50,0s50,22.43,50,50-22.43,50-50,50ZM50,4.76C25.06,4.76,4.76,25.06,4.76,50s20.29,45.24,45.24,45.24,45.24-20.29,45.24-45.24S74.94,4.76,50,4.76Z"/>
  </g>
  <g>
    <path class="c" d="M26.98,64.29c-2.19,0-3.97-1.78-3.97-3.97v-15.88c0-2.19,1.78-3.97,3.97-3.97s3.97,1.78,3.97,3.97v15.88c0,2.19-1.78,3.97-3.97,3.97Z"/>
    <path class="c" d="M73.02,64.29c-2.19,0-3.97-1.78-3.97-3.97v-15.88c0-2.19,1.78-3.97,3.97-3.97s3.97,1.78,3.97,3.97v15.88c0,2.19-1.78,3.97-3.97,3.97Z"/>
    <path class="c" d="M59.53,81.75h-19.05c-2.19,0-3.97-1.78-3.97-3.97s1.78-3.97,3.97-3.97h19.05c2.19,0,3.97,1.78,3.97,3.97s-1.78,3.97-3.97,3.97Z"/>
  </g>
</svg>