<?xml version="1.0" encoding="UTF-8"?>
<svg xmlns="http://www.w3.org/2000/svg" viewBox="0 0 100 100">
  <defs>
    <style>
      .b {
        fill: #f78f8f;
      }

      .c {
        fill: #a20000;
      }
    </style>
  </defs>
  <g>
    <circle class="b" cx="50" cy="50" r="47.62"/>
    <path d="M50,100C22.43,100,0,77.57,0,50S22.43,0,50,0s50,22.43,50,50-22.43,50-50,50ZM50,4.76C25.06,4.76,4.76,25.06,4.76,50s20.29,45.24,45.24,45.24,45.24-20.29,45.24-45.24S74.94,4.76,50,4.76Z"/>
  </g>
  <g>
    <path class="c" d="M41,58.12c-1.91,0-3.46-1.55-3.46-3.46,0-4.79-5.22-6.07-8.3-6.07s-8.3,1.28-8.3,6.07c0,1.91-1.55,3.46-3.46,3.46s-3.46-1.55-3.46-3.46c0-8.53,7.66-12.99,15.22-12.99s15.22,4.46,15.22,12.99c0,1.91-1.55,3.46-3.46,3.46Z"/>
    <path class="c" d="M82.52,58.12c-1.91,0-3.46-1.55-3.46-3.46,0-4.79-5.22-6.07-8.3-6.07s-8.3,1.28-8.3,6.07c0,1.91-1.55,3.46-3.46,3.46s-3.46-1.55-3.46-3.46c0-8.53,7.66-12.99,15.22-12.99s15.22,4.46,15.22,12.99c0,1.91-1.55,3.46-3.46,3.46Z"/>
    <path class="c" d="M50,82.88c-5.99,0-11.98-2.75-17.81-8.25-1.59-1.51-1.67-4.02-.16-5.61,1.5-1.6,4.02-1.67,5.61-.16,8.55,8.07,16.17,8.07,24.71,0,1.6-1.5,4.11-1.43,5.61.16,1.5,1.59,1.43,4.11-.16,5.61-5.82,5.5-11.82,8.25-17.81,8.25Z"/>
  </g>
</svg>