<svg xmlns="http://www.w3.org/2000/svg" viewBox="0 0 50 50">
  <defs>
    <style>
      .cls-1 {
        fill: #fff;
      }

      .cls-2 {
        fill: #58595b;
      }
    </style>
  </defs>
  <circle class="cls-2" cx="25" cy="25" r="25"/>
  <path class="cls-1" d="M30.23,32.01h-10.75l-2.18,7.14c-.28.14-.57.24-.88.29-.31.06-.66.08-1.05.08-.76,0-1.36-.17-1.83-.5s-.69-.85-.69-1.55c0-.34.05-.67.15-.99.1-.32.2-.69.31-1.11.42-1.32.97-3,1.64-5.06.67-2.06,1.41-4.24,2.21-6.55.8-2.31,1.6-4.58,2.39-6.8.8-2.23,1.49-4.12,2.08-5.69.31-.2.76-.38,1.36-.55s1.24-.25,1.91-.25c.87,0,1.64.13,2.33.38.69.25,1.13.69,1.32,1.3.67,1.76,1.39,3.77,2.16,6.03.77,2.25,1.54,4.58,2.31,6.97.77,2.39,1.51,4.75,2.23,7.06.71,2.31,1.35,4.39,1.91,6.24-.28.34-.64.6-1.07.8s-.94.29-1.53.29c-.78,0-1.36-.16-1.72-.48-.36-.32-.67-.87-.92-1.66l-1.68-5.38ZM24.85,14.79c-.28.84-.6,1.79-.97,2.86-.36,1.06-.74,2.18-1.13,3.34-.39,1.16-.77,2.35-1.13,3.55-.36,1.2-.74,2.37-1.13,3.49h8.74c-.36-1.26-.75-2.52-1.16-3.78-.41-1.26-.79-2.46-1.15-3.61-.36-1.15-.71-2.23-1.03-3.23s-.6-1.88-.82-2.6h-.21Z"/>
</svg>