<svg xmlns="http://www.w3.org/2000/svg" viewBox="0 0 50 50">
  <defs>
    <style>
      .cls-1 {
        fill: #fff;
      }

      .cls-2 {
        fill: #58595b;
      }
    </style>
  </defs>
  <circle class="cls-2" cx="25" cy="25" r="25"/>
  <path class="cls-1" d="M34.41,18.07c0,1.37-.33,2.59-.99,3.65-.66,1.06-1.69,1.9-3.09,2.52,1.71.62,2.98,1.53,3.82,2.73s1.26,2.62,1.26,4.24c0,2.91-.99,5.06-2.98,6.45s-4.84,2.08-8.57,2.08c-1.15,0-2.37-.06-3.67-.19-1.3-.13-2.49-.36-3.55-.69-1.37-.39-2.06-1.22-2.06-2.48V13.07c0-.53.14-.95.42-1.24.28-.29.66-.52,1.13-.69,1.04-.34,2.17-.57,3.4-.69,1.23-.13,2.55-.19,3.95-.19,3.44,0,6.12.64,8.04,1.91,1.92,1.27,2.88,3.24,2.88,5.9ZM19.25,22.69h5.25c1.68,0,2.95-.39,3.8-1.18.85-.78,1.28-1.85,1.28-3.19,0-2.72-2.03-4.07-6.09-4.07-.84,0-1.62.03-2.33.08-.71.06-1.35.13-1.91.21v8.15ZM30.59,31.09c0-1.43-.5-2.55-1.49-3.38-.99-.83-2.44-1.24-4.35-1.24h-5.5v8.86c.62.14,1.35.25,2.21.34.85.08,1.71.13,2.58.13,2.1,0,3.72-.38,4.85-1.15s1.7-1.95,1.7-3.55Z"/>
</svg>