<svg xmlns="http://www.w3.org/2000/svg" viewBox="0 0 50 50">
  <defs>
    <style>
      .cls-1 {
        fill: #fff;
      }

      .cls-2 {
        fill: #58595b;
      }
    </style>
  </defs>
  <path class="cls-2" d="M15.38,2.5h32.62c1.1,0,1.99.89,1.99,1.99v41.01c0,1.1-.89,1.99-1.99,1.99H1.99c-1.1,0-1.99-.89-1.99-1.99v-27.62C0,9.39,6.89,2.5,15.38,2.5Z"/>
  <path class="cls-1" d="M18.81,37.29c-.46-.49-.69-1.14-.69-1.95V9.72c.2-.08.5-.16.9-.23.4-.07.83-.1,1.28-.1.86,0,1.51.17,1.93.5s.63.94.63,1.8v22.14h12.03c.14.22.27.5.38.84.11.34.17.73.17,1.17,0,.7-.16,1.24-.48,1.61s-.75.57-1.28.57h-13c-.78,0-1.41-.24-1.87-.73Z"/>
</svg>