<svg xmlns="http://www.w3.org/2000/svg" viewBox="0 0 50 50">
  <defs>
    <style>
      .cls-1 {
        fill: #fff;
      }

      .cls-2 {
        fill: #58595b;
      }
    </style>
  </defs>
  <path class="cls-2" d="M49.53,20.75C49.53,9.29,38.55,0,25,0S.47,9.29.47,20.75c0,8.68,6.31,16.12,15.25,19.21v6.06c2.4,2.45,5.74,3.97,9.43,3.97s7.04-1.52,9.43-3.97v-6.17c8.78-3.16,14.94-10.52,14.94-19.11Z"/>
  <path class="cls-1" d="M25,2.83C13.02,2.83,3.3,10.22,3.3,19.34s9.71,16.51,21.7,16.51,21.7-7.39,21.7-16.51S36.98,2.83,25,2.83ZM25,33.02c-9.64,0-17.45-6.25-17.45-13.97S15.36,5.09,25,5.09s17.45,6.25,17.45,13.96-7.81,13.97-17.45,13.97Z"/>
  <path class="cls-1" d="M19.96,26.6c-.29-.31-.44-.72-.44-1.23V9.17c.12-.05.31-.1.57-.15.26-.04.53-.07.81-.07.55,0,.95.11,1.22.32s.4.59.4,1.14v14h7.61c.09.14.17.32.24.53.07.21.11.46.11.74,0,.44-.1.78-.31,1.02s-.47.36-.81.36h-8.22c-.5,0-.89-.15-1.18-.46Z"/>
</svg>