<svg xmlns="http://www.w3.org/2000/svg" viewBox="0 0 50 50">
  <defs>
    <style>
      .cls-1 {
        fill: #fff;
      }

      .cls-2 {
        fill: #58595b;
      }
    </style>
  </defs>
  <path class="cls-2" d="M1.99,2.5h46.01c1.1,0,1.99.89,1.99,1.99v41.01c0,1.1-.89,1.99-1.99,1.99H15.38c-8.49,0-15.38-6.89-15.38-15.38V4.49c0-1.1.89-1.99,1.99-1.99Z" transform="translate(50 50) rotate(180)"/>
  <path class="cls-1" d="M19.76,38.92c-.25.08-.57.17-.96.25s-.81.13-1.26.13c-.89,0-1.54-.18-1.95-.55-.41-.36-.61-.96-.61-1.8V12.92c0-.53.14-.94.42-1.24.28-.29.66-.52,1.13-.69.95-.34,2.05-.57,3.31-.69s2.52-.19,3.77-.19c3.86,0,6.72.82,8.57,2.45,1.86,1.63,2.79,3.92,2.79,6.86,0,2.07-.5,3.82-1.51,5.26-1.01,1.44-2.46,2.52-4.36,3.25.73.92,1.43,1.84,2.1,2.75.67.91,1.31,1.78,1.91,2.6.6.82,1.15,1.57,1.66,2.24.5.67.89,1.23,1.17,1.68-.17.7-.5,1.24-.98,1.61-.49.38-1.04.57-1.66.57-.7,0-1.25-.18-1.66-.55s-.83-.85-1.28-1.47l-5.66-8.68h-4.95v10.23ZM24,24.7c1.9,0,3.42-.43,4.55-1.3,1.13-.87,1.7-2.19,1.7-3.98s-.57-3.03-1.7-3.9c-1.13-.87-2.82-1.3-5.05-1.3-.67,0-1.34.03-1.99.08-.66.06-1.25.14-1.78.25v10.15h4.28Z"/>
</svg>