<svg xmlns="http://www.w3.org/2000/svg" viewBox="0 0 50 50">
  <defs>
    <style>
      .cls-1 {
        fill: #fff;
      }

      .cls-2 {
        fill: #58595b;
      }
    </style>
  </defs>
  <path class="cls-2" d="M49.53,20.75C49.53,9.29,38.55,0,25,0S.47,9.29.47,20.75c0,8.68,6.31,16.12,15.25,19.21v6.06c2.4,2.45,5.74,3.97,9.43,3.97s7.04-1.52,9.43-3.97v-6.17c8.78-3.16,14.94-10.52,14.94-19.11Z"/>
  <path class="cls-1" d="M25,2.83C13.02,2.83,3.3,10.22,3.3,19.34s9.71,16.51,21.7,16.51,21.7-7.39,21.7-16.51S36.98,2.83,25,2.83ZM25,33.02c-9.64,0-17.45-6.25-17.45-13.97S15.36,5.09,25,5.09s17.45,6.25,17.45,13.96-7.81,13.97-17.45,13.97Z"/>
  <path class="cls-1" d="M21.39,27.6c-.16.05-.36.11-.61.16s-.51.08-.79.08c-.57,0-.98-.11-1.23-.34-.26-.23-.38-.61-.38-1.14v-15.19c0-.34.09-.6.27-.78.18-.19.42-.33.72-.44.6-.21,1.3-.36,2.09-.44s1.59-.12,2.39-.12c2.44,0,4.25.52,5.42,1.55,1.18,1.03,1.76,2.48,1.76,4.33,0,1.31-.32,2.42-.95,3.33-.64.91-1.56,1.6-2.76,2.05.46.58.9,1.16,1.33,1.74.42.57.83,1.12,1.21,1.64.38.52.73.99,1.05,1.42.32.42.57.78.74,1.06-.11.44-.31.78-.62,1.02-.31.24-.66.36-1.05.36-.44,0-.79-.12-1.05-.34s-.53-.54-.81-.93l-3.58-5.49h-3.13v6.47ZM24.07,18.61c1.2,0,2.16-.27,2.88-.82.72-.55,1.07-1.39,1.07-2.52s-.36-1.92-1.07-2.47c-.72-.55-1.78-.82-3.19-.82-.42,0-.84.02-1.26.05-.42.04-.79.09-1.13.16v6.42h2.7Z"/>
</svg>