<svg xmlns="http://www.w3.org/2000/svg" viewBox="0 0 50 50">
  <defs>
    <style>
      .cls-1 {
        fill: #fff;
      }

      .cls-2 {
        fill: #58595b;
      }
    </style>
  </defs>
  <circle class="cls-2" cx="25" cy="25" r="25"/>
  <path class="cls-1" d="M24.85,28.21l-7.48,11.17c-.14.03-.29.05-.44.06-.15.01-.33.02-.53.02-.9,0-1.58-.2-2.06-.61-.48-.41-.71-.96-.71-1.66,0-.5.11-.99.34-1.45.22-.46.55-.96.97-1.49l6.93-9.49-8.19-11.84c.2-.64.52-1.2.99-1.68s1.08-.71,1.87-.71c.59,0,1.08.16,1.49.48.41.32.85.83,1.32,1.53l5.63,8.69,7.14-10.54c.17-.03.37-.06.61-.08.24-.03.47-.04.69-.04.81,0,1.43.2,1.87.61.43.41.65.92.65,1.53,0,.48-.11.93-.34,1.37-.22.43-.55.92-.97,1.45-1.09,1.51-2.2,3.02-3.32,4.54-1.12,1.51-2.27,3.07-3.44,4.66l8.48,12.39c-.11.73-.41,1.3-.88,1.72-.48.42-1.11.63-1.89.63-.56,0-1.04-.15-1.43-.44-.39-.29-.81-.8-1.26-1.53l-6.05-9.28Z"/>
</svg>