<svg xmlns="http://www.w3.org/2000/svg" viewBox="0 0 50 50">
  <defs>
    <style>
      .cls-1 {
        fill: #fff;
      }

      .cls-2 {
        fill: #58595b;
      }
    </style>
  </defs>
  <circle class="cls-2" cx="25" cy="25" r="25"/>
  <path class="cls-1" d="M36.45,12.65c0,.67-.74,2.4-2.21,5.19-1.47,2.79-3.63,6.49-6.49,11.11v10.12c-.22.08-.54.17-.95.25s-.82.13-1.24.13c-.92,0-1.58-.18-1.97-.55-.39-.36-.59-.95-.59-1.76v-8.15c-.76-1.26-1.58-2.61-2.48-4.05-.9-1.44-1.77-2.9-2.62-4.39-.85-1.48-1.66-2.93-2.42-4.35-.76-1.41-1.4-2.72-1.93-3.93.17-.45.46-.85.86-1.2.41-.35.96-.52,1.66-.52s1.26.17,1.68.52c.42.35.85.95,1.3,1.79.34.67.78,1.55,1.34,2.65.56,1.09,1.15,2.22,1.79,3.38.63,1.16,1.22,2.26,1.78,3.3s1.01,1.83,1.34,2.39h.17c.67-1.23,1.3-2.42,1.89-3.55s1.15-2.25,1.68-3.34,1.06-2.18,1.58-3.28c.52-1.09,1.04-2.21,1.58-3.36.28-.14.6-.26.97-.36.36-.1.71-.15,1.05-.15.67,0,1.21.19,1.62.57.41.38.61.89.61,1.53Z"/>
</svg>