<svg xmlns="http://www.w3.org/2000/svg" viewBox="0 0 50 50">
  <defs>
    <style>
      .cls-1 {
        fill: #fff;
      }

      .cls-2 {
        fill: #58595b;
      }
    </style>
  </defs>
  <path class="cls-2" d="M27.04,0h9.31c6.98,0,12.65,5.67,12.65,12.65v35.57c0,.99-.8,1.79-1.79,1.79H2.79c-.99,0-1.79-.8-1.79-1.79v-22.17C1,11.67,12.67,0,27.04,0Z"/>
  <path class="cls-1" d="M10.51,34.32c-.17-.38-.26-.81-.26-1.28s.1-.91.3-1.34.46-.84.76-1.25l8.97-12.13h-9.3c-.12-.2-.23-.45-.32-.74-.09-.29-.14-.62-.14-.99,0-.65.13-1.13.39-1.44.26-.31.64-.47,1.12-.47h12.31c.67.61,1,1.38,1,2.31,0,.45-.09.87-.27,1.28-.18.41-.42.81-.7,1.22l-9.03,12.16h9.76c.12.2.23.45.33.74.1.29.15.63.15,1.02,0,.63-.14,1.09-.41,1.4-.27.3-.64.46-1.11.46h-12.92c-.26-.24-.48-.56-.65-.94Z"/>
  <path class="cls-1" d="M29.41,34.78c-.33-.36-.5-.84-.5-1.45v-15.24c.14-.05.37-.1.69-.15.32-.05.63-.08.92-.08.65,0,1.12.12,1.43.37s.46.69.46,1.34v12.72h6.91c.08.15.18.36.28.61s.15.54.15.84c0,.51-.11.9-.34,1.17-.23.27-.54.41-.93.41h-7.72c-.56,0-1.01-.18-1.34-.54Z"/>
</svg>