<svg xmlns="http://www.w3.org/2000/svg" viewBox="0 0 50 50">
  <defs>
    <style>
      .cls-1 {
        fill: #fff;
      }

      .cls-2 {
        fill: #58595b;
      }
    </style>
  </defs>
  <path class="cls-2" d="M2.79,0h44.42c.99,0,1.79.8,1.79,1.79v35.57c0,6.98-5.67,12.65-12.65,12.65h-9.31c-14.37,0-26.04-11.67-26.04-26.04V1.79c0-.99.8-1.79,1.79-1.79Z" transform="translate(50 50) rotate(180)"/>
  <path class="cls-1" d="M9.35,34.22c-.17-.38-.26-.81-.26-1.28s.1-.91.3-1.34.46-.84.76-1.25l8.97-12.13h-9.3c-.12-.2-.23-.45-.32-.74-.09-.29-.14-.62-.14-.99,0-.65.13-1.13.39-1.44.26-.31.64-.47,1.12-.47h12.31c.67.61,1,1.38,1,2.31,0,.45-.09.87-.27,1.28-.18.41-.42.81-.7,1.22l-9.03,12.16h9.76c.12.2.23.45.33.74.1.29.15.63.15,1.02,0,.63-.14,1.09-.41,1.4-.27.3-.64.46-1.11.46h-12.92c-.26-.24-.48-.56-.65-.94Z"/>
  <path class="cls-1" d="M31.25,35.13c-.15.03-.38.08-.68.14-.3.06-.62.09-.98.09-.68,0-1.16-.13-1.43-.4-.27-.26-.41-.71-.41-1.34v-14.22c0-.36.09-.63.27-.82.18-.19.43-.34.75-.46.56-.2,1.24-.35,2.03-.43.79-.09,1.6-.13,2.43-.13,2.35,0,4.11.51,5.3,1.54s1.78,2.45,1.78,4.27c0,1.19-.3,2.22-.89,3.1-.6.88-1.41,1.55-2.45,2.03.8,1.07,1.56,2.09,2.29,3.07.73.98,1.28,1.74,1.63,2.28-.15.49-.41.88-.76,1.15-.36.27-.76.41-1.2.41-.54,0-.97-.13-1.27-.39s-.59-.63-.87-1.08l-3.03-4.79h-2.52v5.99ZM33.39,26.26c1.04,0,1.87-.23,2.49-.7s.93-1.19.93-2.15c0-1.9-1.22-2.86-3.65-2.86-.36,0-.7.02-1.03.05-.33.03-.63.07-.9.1v5.56h2.17Z"/>
</svg>